<?xml version="1.0" standalone="no"?>
<!DOCTYPE svg PUBLIC "-//W3C//DTD SVG 20010904//EN"
 "http://www.w3.org/TR/2001/REC-SVG-20010904/DTD/svg10.dtd">
<svg version="1.0" xmlns="http://www.w3.org/2000/svg"
 width="197.000000pt" height="200.000000pt" viewBox="0 0 197.000000 200.000000"
 preserveAspectRatio="xMidYMid meet">

<g transform="translate(0.000000,200.000000) scale(0.100000,-0.100000)"
fill="#000000" stroke="none">
<path d="M1464 1993 c-19 -14 -56 -102 -52 -125 3 -24 -1 -23 154 -44 47 -6
53 -10 69 -43 37 -77 47 -120 55 -231 5 -63 11 -122 15 -132 9 -21 -25 -33
-86 -29 -51 3 -97 -15 -141 -57 -26 -24 -34 -25 -113 -23 -98 2 -151 -16 -199
-68 -24 -25 -38 -31 -69 -31 -53 0 -117 20 -117 37 0 7 4 13 9 13 20 0 21 41
1 98 -11 32 -23 70 -25 82 -2 13 -13 33 -24 44 -10 12 -21 30 -25 41 -3 11
-32 47 -65 79 -89 88 -161 94 -267 21 -46 -32 -56 -45 -69 -88 -18 -60 -19
-86 -4 -124 11 -30 57 -83 72 -83 18 0 121 -81 139 -110 29 -49 23 -85 -20
-132 -36 -38 -44 -41 -94 -44 -69 -3 -123 -25 -166 -67 -35 -33 -82 -115 -82
-142 0 -8 -12 -25 -27 -38 -44 -37 -67 -67 -79 -100 l-10 -31 -43 62 c-29 44
-46 81 -53 122 -14 73 -5 98 50 137 21 16 53 45 72 66 31 35 32 40 19 64 -13
24 -83 63 -113 63 -14 0 -70 -85 -116 -178 -21 -42 -31 -81 -35 -129 -3 -37
-10 -94 -16 -125 -23 -118 28 -340 88 -388 47 -37 106 -28 232 37 105 54 160
97 230 183 l21 25 21 -24 c11 -14 37 -52 57 -85 35 -58 37 -66 37 -146 0 -104
-17 -196 -50 -278 -14 -34 -25 -64 -25 -67 0 -3 162 -5 361 -5 285 0 360 3
356 12 -13 37 -38 133 -53 213 -26 134 -29 205 -9 251 18 41 97 267 120 344 7
25 16 66 20 92 4 29 16 60 31 78 25 29 41 36 162 65 79 19 132 55 245 164 115
112 121 122 101 197 -25 97 -58 168 -120 258 -32 47 -73 108 -90 135 -19 32
-61 72 -119 116 -85 64 -137 86 -161 68z"/>
</g>
</svg>
